# xmcd
#
# Track frame offsets: 
#        150
#        16557
#        35884
#        62048
#        104130
#        119495
#        138429
#        153746
#        176358
#        197118
#        210403
#
# Disc length: 3161 seconds
#
# Revision: 4
# Processed by: cddbd v1.5.2PL0 Copyright (c) Steve Scherf et al.
# Submitted via: ExactAudioCopy v0.95b4
#
DISCID=9d0c570b
DTITLE=Albert Collins - Collins Mix: The Best Of
DYEAR=1900
DGENRE=Blues
TTITLE0=There's Gotta Be A Change
TTITLE1=Honey Hush
TTITLE2=Mastercharge
TTITLE3=If Trouble Was Money
TTITLE4=Don't Lose Your Cool
TTITLE5=If You Love Me Like You Say
TTITLE6=Frosty
TTITLE7=Tired Man
TTITLE8=The Moon Is Full
TTITLE9=Collins Mix
TTITLE10=Same Old Thing
EXTD=
EXTT0=
EXTT1=
EXTT2=
EXTT3=
EXTT4=
EXTT5=
EXTT6=
EXTT7=
EXTT8=
EXTT9=
EXTT10=
PLAYORDER=
